G04 (created by PCBNEW (2013-07-07 BZR 4022)-stable) date 2/02/2014 9:55:01 p.m.*
%MOIN*%
G04 Gerber Fmt 3.4, Leading zero omitted, Abs format*
%FSLAX34Y34*%
G01*
G70*
G90*
G04 APERTURE LIST*
%ADD10C,0.00590551*%
%ADD11C,0.005*%
%ADD12C,0.0026*%
%ADD13C,0.004*%
%ADD14C,0.0039*%
%ADD15C,0.0035*%
%ADD16C,0.0043*%
G04 APERTURE END LIST*
G54D10*
G54D11*
X62199Y-40023D02*
X62199Y-42023D01*
X62199Y-42023D02*
X60399Y-42023D01*
X60399Y-42023D02*
X60399Y-40023D01*
X60399Y-40023D02*
X62199Y-40023D01*
X61599Y-40023D02*
X61599Y-40223D01*
X61599Y-40223D02*
X61099Y-40223D01*
X61099Y-40223D02*
X61099Y-40023D01*
G54D12*
X61061Y-36439D02*
X61139Y-36439D01*
X61139Y-36439D02*
X61139Y-36361D01*
X61061Y-36361D02*
X61139Y-36361D01*
X61061Y-36439D02*
X61061Y-36361D01*
X61277Y-36675D02*
X61414Y-36675D01*
X61414Y-36675D02*
X61414Y-36577D01*
X61277Y-36577D02*
X61414Y-36577D01*
X61277Y-36675D02*
X61277Y-36577D01*
X61414Y-36675D02*
X61454Y-36675D01*
X61454Y-36675D02*
X61454Y-36204D01*
X61414Y-36204D02*
X61454Y-36204D01*
X61414Y-36675D02*
X61414Y-36204D01*
X61414Y-36184D02*
X61454Y-36184D01*
X61454Y-36184D02*
X61454Y-36125D01*
X61414Y-36125D02*
X61454Y-36125D01*
X61414Y-36184D02*
X61414Y-36125D01*
X60746Y-36675D02*
X60786Y-36675D01*
X60786Y-36675D02*
X60786Y-36204D01*
X60746Y-36204D02*
X60786Y-36204D01*
X60746Y-36675D02*
X60746Y-36204D01*
X60746Y-36184D02*
X60786Y-36184D01*
X60786Y-36184D02*
X60786Y-36125D01*
X60746Y-36125D02*
X60786Y-36125D01*
X60746Y-36184D02*
X60746Y-36125D01*
X61277Y-36675D02*
X61336Y-36675D01*
X61336Y-36675D02*
X61336Y-36577D01*
X61277Y-36577D02*
X61336Y-36577D01*
X61277Y-36675D02*
X61277Y-36577D01*
G54D13*
X61710Y-36695D02*
X60490Y-36695D01*
X60490Y-36695D02*
X60490Y-36105D01*
X60490Y-36105D02*
X61710Y-36105D01*
X61710Y-36105D02*
X61710Y-36695D01*
X60884Y-36596D02*
G75*
G03X61316Y-36595I215J196D01*
G74*
G01*
X60884Y-36203D02*
G75*
G03X60883Y-36595I215J-196D01*
G74*
G01*
X61315Y-36203D02*
G75*
G03X60883Y-36204I-215J-196D01*
G74*
G01*
X61315Y-36596D02*
G75*
G03X61316Y-36204I-215J196D01*
G74*
G01*
G54D10*
X56776Y-40937D02*
G75*
G03X56787Y-42269I405J-662D01*
G74*
G01*
X57823Y-42262D02*
G75*
G03X57812Y-40930I-405J662D01*
G74*
G01*
X56788Y-40930D02*
X57811Y-40930D01*
X57811Y-42269D02*
X56788Y-42269D01*
G54D14*
X62038Y-38755D02*
G75*
G03X62038Y-38755I-50J0D01*
G74*
G01*
X61538Y-38755D02*
X61938Y-38755D01*
X61938Y-38755D02*
X61938Y-39355D01*
X61938Y-39355D02*
X61538Y-39355D01*
X61138Y-39355D02*
X60738Y-39355D01*
X60738Y-39355D02*
X60738Y-38755D01*
X60738Y-38755D02*
X61138Y-38755D01*
X63726Y-40373D02*
G75*
G03X63726Y-40373I-50J0D01*
G74*
G01*
X63676Y-40823D02*
X63676Y-40423D01*
X63676Y-40423D02*
X64276Y-40423D01*
X64276Y-40423D02*
X64276Y-40823D01*
X64276Y-41223D02*
X64276Y-41623D01*
X64276Y-41623D02*
X63676Y-41623D01*
X63676Y-41623D02*
X63676Y-41223D01*
X59326Y-39665D02*
G75*
G03X59326Y-39665I-50J0D01*
G74*
G01*
X59276Y-39215D02*
X59276Y-39615D01*
X59276Y-39615D02*
X58676Y-39615D01*
X58676Y-39615D02*
X58676Y-39215D01*
X58676Y-38815D02*
X58676Y-38415D01*
X58676Y-38415D02*
X59276Y-38415D01*
X59276Y-38415D02*
X59276Y-38815D01*
G54D11*
X60994Y-39259D02*
X60994Y-39623D01*
X61013Y-39666D01*
X61032Y-39688D01*
X61070Y-39709D01*
X61146Y-39709D01*
X61184Y-39688D01*
X61203Y-39666D01*
X61223Y-39623D01*
X61223Y-39259D01*
X61623Y-39709D02*
X61394Y-39709D01*
X61508Y-39709D02*
X61508Y-39259D01*
X61470Y-39323D01*
X61432Y-39366D01*
X61394Y-39388D01*
G54D15*
X60978Y-35921D02*
X60978Y-35621D01*
X61050Y-35621D01*
X61092Y-35635D01*
X61121Y-35664D01*
X61135Y-35692D01*
X61150Y-35750D01*
X61150Y-35792D01*
X61135Y-35850D01*
X61121Y-35878D01*
X61092Y-35907D01*
X61050Y-35921D01*
X60978Y-35921D01*
X61435Y-35921D02*
X61264Y-35921D01*
X61350Y-35921D02*
X61350Y-35621D01*
X61321Y-35664D01*
X61292Y-35692D01*
X61264Y-35707D01*
G54D10*
X56840Y-40735D02*
X56653Y-40735D01*
X56653Y-40342D01*
X56971Y-40735D02*
X56971Y-40342D01*
X57065Y-40342D01*
X57121Y-40360D01*
X57159Y-40398D01*
X57178Y-40435D01*
X57196Y-40510D01*
X57196Y-40567D01*
X57178Y-40641D01*
X57159Y-40679D01*
X57121Y-40716D01*
X57065Y-40735D01*
X56971Y-40735D01*
X57590Y-40735D02*
X57459Y-40548D01*
X57365Y-40735D02*
X57365Y-40342D01*
X57515Y-40342D01*
X57553Y-40360D01*
X57571Y-40379D01*
X57590Y-40417D01*
X57590Y-40473D01*
X57571Y-40510D01*
X57553Y-40529D01*
X57515Y-40548D01*
X57365Y-40548D01*
X57965Y-40735D02*
X57740Y-40735D01*
X57853Y-40735D02*
X57853Y-40342D01*
X57815Y-40398D01*
X57778Y-40435D01*
X57740Y-40454D01*
G54D16*
X61305Y-39241D02*
X61296Y-39250D01*
X61268Y-39259D01*
X61249Y-39259D01*
X61221Y-39250D01*
X61202Y-39231D01*
X61193Y-39212D01*
X61183Y-39175D01*
X61183Y-39147D01*
X61193Y-39109D01*
X61202Y-39090D01*
X61221Y-39072D01*
X61249Y-39062D01*
X61268Y-39062D01*
X61296Y-39072D01*
X61305Y-39081D01*
X61493Y-39259D02*
X61380Y-39259D01*
X61437Y-39259D02*
X61437Y-39062D01*
X61418Y-39090D01*
X61399Y-39109D01*
X61380Y-39119D01*
X64181Y-41056D02*
X64087Y-41122D01*
X64181Y-41169D02*
X63984Y-41169D01*
X63984Y-41093D01*
X63993Y-41075D01*
X64002Y-41065D01*
X64021Y-41056D01*
X64049Y-41056D01*
X64068Y-41065D01*
X64077Y-41075D01*
X64087Y-41093D01*
X64087Y-41169D01*
X64181Y-40868D02*
X64181Y-40981D01*
X64181Y-40925D02*
X63984Y-40925D01*
X64012Y-40943D01*
X64031Y-40962D01*
X64040Y-40981D01*
X58931Y-39048D02*
X58837Y-39114D01*
X58931Y-39161D02*
X58734Y-39161D01*
X58734Y-39086D01*
X58743Y-39067D01*
X58752Y-39057D01*
X58771Y-39048D01*
X58799Y-39048D01*
X58818Y-39057D01*
X58827Y-39067D01*
X58837Y-39086D01*
X58837Y-39161D01*
X58752Y-38973D02*
X58743Y-38964D01*
X58734Y-38945D01*
X58734Y-38898D01*
X58743Y-38879D01*
X58752Y-38870D01*
X58771Y-38860D01*
X58790Y-38860D01*
X58818Y-38870D01*
X58931Y-38982D01*
X58931Y-38860D01*
M02*
